<?xml version="1.0" encoding="utf-8"?>
<!-- Generator: Adobe Illustrator 23.0.1, SVG Export Plug-In . SVG Version: 6.00 Build 0)  -->
<svg version="1.1" id="Layer_1" xmlns="http://www.w3.org/2000/svg" xmlns:xlink="http://www.w3.org/1999/xlink" x="0px" y="0px"
	 viewBox="0 0 1200 120" style="enable-background:new 0 0 1200 120;" xml:space="preserve">
<style type="text/css">
	.st0{opacity:0.25;fill:#1B5E9C;enable-background:new    ;}
	.st1{opacity:0.5;fill:#FEE600;enable-background:new    ;}
	.st2{fill:#1B5E9C;}
</style>
<path class="st0" d="M0,0v46.3c47.8,22.2,103.6,32.2,158,28c70.4-5.4,136.3-33.3,206.8-37.5C438.6,32.4,512.3,53.7,583,72
	c69.3,18,138.3,24.9,209.4,13.1c36.2-6,69.8-17.8,104.5-29.3C989.5,25,1113-14.3,1200,52.5V0H0z"/>
<path class="st1" d="M0,0v15.8c13,21.1,27.6,41,47.7,56.2C99.4,111.3,165,111,224.6,91.6c31.1-10.2,60.1-26.1,89.7-39.8
	c40.9-19,84.7-46,130.8-49.7c36.3-2.8,70.9,9.4,98.6,31.6c31.8,25.4,62.3,62,103.6,73c40.4,10.8,81.3-6.7,119.1-24.3
	s75.2-39,116.9-43c59.7-5.8,113.3,22.9,168.9,38.8c30.2,8.7,59,6.2,87.1-7.5c22.4-10.9,48-26.9,60.7-49.2V0H0z"/>
<path class="st2" d="M0,0v5.6C149.9,59,314.1,71.3,475.8,42.6c43-7.6,84.2-20.1,127.6-26.5c59-8.6,112.5,12.2,165.6,35.4
	C827.9,77.2,886,95.2,951.2,90c86.5-7,172.5-45.7,248.8-84.8V0H0z"/>
</svg>
